<svg data-v-fde0c5aa="" xmlns="http://www.w3.org/2000/svg" viewBox="0 0 300 300" class="iconLeft"><!----><defs data-v-fde0c5aa=""><!----></defs><!----><defs data-v-fde0c5aa=""><!----></defs><g data-v-fde0c5aa="" id="6c0d7783-8c7a-48e9-9b88-6b8563c25c22" fill="#fffefe" transform="matrix(1.6450870711913932,0,0,1.6450870711913932,70.66693539329067,127.13328955355189)"><path d="M6.78 10.37Q5.33 10.37 4.20 10.09L4.20 10.09L3.61 13.72Q4.24 13.79 5.24 13.79L5.24 13.79L6.20 13.55L6.20 13.82Q6.20 14.29 5.89 14.55Q5.59 14.80 5.00 14.80L5.00 14.80Q4.28 14.80 3.49 14.60L3.49 14.60Q3.09 17.08 3.09 17.79L3.09 17.79Q3.09 17.88 3.12 17.99L3.12 17.99L6.05 17.99Q6.80 17.92 7.43 17.68L7.43 17.68Q7.55 18.06 7.55 18.21L7.55 18.21Q7.55 18.73 7.04 18.96Q6.54 19.18 5.42 19.18L5.42 19.18Q4.41 19.18 3.49 18.90L3.49 18.90Q2.94 19.19 2.49 19.19L2.49 19.19Q2.07 19.19 1.88 18.97Q1.68 18.75 1.68 18.24L1.68 18.24Q1.68 17.40 1.92 15.67Q2.16 13.93 2.81 9.84L2.81 9.84L2.45 9.14Q3.25 8.67 3.81 8.67L3.81 8.67Q4.31 8.67 4.31 9.27L4.31 9.27L4.31 9.28Q5.24 9.25 5.94 9.16Q6.65 9.06 7.76 8.83L7.76 8.83L8.22 8.75Q8.29 8.97 8.29 9.27L8.29 9.27Q8.29 9.86 7.85 10.12Q7.41 10.37 6.78 10.37L6.78 10.37ZM15.60 9.52Q15.60 10.18 15.58 10.58L15.58 10.58L15.57 12.25Q15.57 14.69 15.79 16.47Q16.00 18.26 16.62 18.84L16.62 18.84Q16.23 19.15 15.71 19.15L15.71 19.15Q15.22 19.15 14.92 18.88Q14.62 18.61 14.45 17.95Q14.28 17.29 14.21 16.11L14.21 16.11L10.42 16.11Q10.09 17.02 10.09 17.67L10.09 17.67Q10.09 18.42 10.28 18.84L10.28 18.84Q10.07 19.01 9.85 19.08Q9.63 19.15 9.32 19.15L9.32 19.15Q9.00 19.15 8.83 18.87Q8.65 18.58 8.65 18.03L8.65 18.03Q8.65 16.88 9.77 14.60Q10.88 12.32 12.92 9.37L12.92 9.37L12.50 8.93Q12.82 8.74 13.10 8.65Q13.37 8.55 13.71 8.55L13.71 8.55Q14.21 8.55 14.31 8.82L14.31 8.82Q14.57 8.55 14.92 8.55L14.92 8.55Q15.26 8.55 15.43 8.79Q15.60 9.02 15.60 9.52L15.60 9.52ZM10.75 15.29L14.18 15.29Q14.15 14.77 14.15 13.54L14.15 13.54L14.15 9.81L13.99 9.81Q11.68 13.22 10.75 15.29L10.75 15.29ZM21.88 19.18Q20.41 19.18 19.46 18.73Q18.51 18.27 18.51 17.43L18.51 17.43Q18.51 17.14 18.67 16.90Q18.83 16.66 19.10 16.52L19.10 16.52Q19.49 17.37 20.22 17.83Q20.96 18.28 21.81 18.28L21.81 18.28Q23.11 18.28 23.89 17.84Q24.67 17.39 24.67 16.53L24.67 16.53Q24.67 16.11 24.37 15.80Q24.07 15.48 23.61 15.26Q23.16 15.04 22.36 14.74L22.36 14.74Q21.34 14.35 20.70 14.02Q20.06 13.69 19.61 13.14Q19.15 12.59 19.15 11.76L19.15 11.76Q19.15 10.92 19.75 10.21Q20.36 9.51 21.47 9.09Q22.58 8.67 24.05 8.67L24.05 8.67Q25.27 8.67 26.07 9.02Q26.88 9.37 26.88 9.93L26.88 9.93Q26.88 10.49 26.52 10.77Q26.17 11.06 25.55 11.06L25.55 11.06Q24.33 11.06 23.93 9.55L23.93 9.55Q22.37 9.73 21.51 10.29Q20.65 10.85 20.65 11.61L20.65 11.61Q20.65 12.00 20.94 12.29Q21.24 12.57 21.67 12.78Q22.11 12.98 22.89 13.27L22.89 13.27Q23.94 13.68 24.59 14.01Q25.24 14.34 25.70 14.89Q26.17 15.44 26.17 16.25L26.17 16.25Q26.17 17.01 25.70 17.68Q25.24 18.35 24.28 18.77Q23.32 19.18 21.88 19.18L21.88 19.18ZM35.49 8.85Q35.59 9.03 35.59 9.38L35.59 9.38Q35.59 9.81 35.27 10.05Q34.94 10.28 34.37 10.28L34.37 10.28Q33.88 10.28 33.34 10.21Q32.80 10.14 32.66 10.12L32.66 10.12L32.37 11.97Q31.98 14.42 31.76 15.94Q31.54 17.46 31.54 17.93L31.54 17.93Q31.54 18.55 31.85 18.90L31.85 18.90Q31.40 19.19 30.94 19.19L30.94 19.19Q30.53 19.19 30.33 19.01Q30.13 18.82 30.13 18.38L30.13 18.38Q30.13 17.64 30.39 15.68Q30.66 13.72 31.26 9.97L31.26 9.97Q31.14 9.95 30.86 9.95L30.86 9.95L28.56 10.25Q28.45 10.02 28.45 9.72L28.45 9.72Q28.45 9.17 28.75 9.00Q29.05 8.82 29.68 8.82L29.68 8.82Q30.24 8.82 31.42 8.99L31.42 8.99Q32.56 9.16 33.19 9.16L33.19 9.16L35.49 8.85ZM48.22 9.87Q48.22 10.96 47.17 13.21Q46.13 15.46 44.21 18.45L44.21 18.45L44.45 18.84Q44.28 19.01 43.88 19.13Q43.48 19.25 43.09 19.25L43.09 19.25Q42.35 19.25 42.10 18.75Q41.85 18.26 41.79 17.32L41.79 17.32L41.57 14.08L41.16 14.80Q40.11 16.67 39.38 17.64Q38.65 18.61 38.13 18.93Q37.60 19.25 37.04 19.25L37.04 19.25Q36.58 19.25 36.42 18.82Q36.26 18.40 36.26 17.63L36.26 17.63L36.27 16.20Q36.29 15.74 36.29 14.83L36.29 14.83Q36.29 12.70 36.04 11.27Q35.80 9.84 35.07 8.97L35.07 8.97Q35.50 8.67 36.04 8.67L36.04 8.67Q36.75 8.67 37.09 9.19Q37.44 9.72 37.55 10.87Q37.67 12.03 37.67 14.27L37.67 14.27L37.67 17.33Q37.67 17.61 37.68 17.77Q37.69 17.92 37.67 18.00L37.67 18.00L37.86 18.00Q40.22 15.06 41.43 12.14L41.43 12.14L41.24 9.58Q41.34 9.39 41.62 9.28Q41.90 9.17 42.31 9.17L42.31 9.17Q42.71 9.17 42.97 9.47Q43.23 9.77 43.23 10.28L43.23 10.28Q43.23 10.67 43.12 11.05Q43.01 11.44 42.74 11.97L42.74 11.97L42.92 18.00L43.09 18.00Q45.05 14.95 45.91 13.17Q46.77 11.38 46.77 10.44L46.77 10.44Q46.77 9.55 46.40 8.97L46.40 8.97Q46.82 8.76 47.00 8.72Q47.19 8.67 47.46 8.67L47.46 8.67Q47.80 8.67 48.01 9.00Q48.22 9.32 48.22 9.87L48.22 9.87ZM55.01 10.37Q53.56 10.37 52.43 10.09L52.43 10.09L51.84 13.72Q52.47 13.79 53.47 13.79L53.47 13.79L54.43 13.55L54.43 13.82Q54.43 14.29 54.12 14.55Q53.82 14.80 53.23 14.80L53.23 14.80Q52.51 14.80 51.72 14.60L51.72 14.60Q51.32 17.08 51.32 17.79L51.32 17.79Q51.32 17.88 51.35 17.99L51.35 17.99L54.28 17.99Q55.03 17.92 55.66 17.68L55.66 17.68Q55.78 18.06 55.78 18.21L55.78 18.21Q55.78 18.73 55.27 18.96Q54.77 19.18 53.65 19.18L53.65 19.18Q52.64 19.18 51.72 18.90L51.72 18.90Q51.17 19.19 50.72 19.19L50.72 19.19Q50.30 19.19 50.11 18.97Q49.91 18.75 49.91 18.24L49.91 18.24Q49.91 17.40 50.15 15.67Q50.39 13.93 51.04 9.84L51.04 9.84L50.68 9.14Q51.48 8.67 52.04 8.67L52.04 8.67Q52.54 8.67 52.54 9.27L52.54 9.27L52.54 9.28Q53.47 9.25 54.17 9.16Q54.88 9.06 55.99 8.83L55.99 8.83L56.45 8.75Q56.52 8.97 56.52 9.27L56.52 9.27Q56.52 9.86 56.08 10.12Q55.64 10.37 55.01 10.37L55.01 10.37ZM60.68 19.18Q59.21 19.18 58.25 18.73Q57.30 18.27 57.30 17.43L57.30 17.43Q57.30 17.14 57.46 16.90Q57.62 16.66 57.89 16.52L57.89 16.52Q58.28 17.37 59.02 17.83Q59.75 18.28 60.61 18.28L60.61 18.28Q61.91 18.28 62.68 17.84Q63.46 17.39 63.46 16.53L63.46 16.53Q63.46 16.11 63.16 15.80Q62.86 15.48 62.40 15.26Q61.95 15.04 61.15 14.74L61.15 14.74Q60.13 14.35 59.49 14.02Q58.86 13.69 58.40 13.14Q57.95 12.59 57.95 11.76L57.95 11.76Q57.95 10.92 58.55 10.21Q59.15 9.51 60.26 9.09Q61.38 8.67 62.85 8.67L62.85 8.67Q64.06 8.67 64.87 9.02Q65.67 9.37 65.67 9.93L65.67 9.93Q65.67 10.49 65.32 10.77Q64.96 11.06 64.34 11.06L64.34 11.06Q63.13 11.06 62.72 9.55L62.72 9.55Q61.17 9.73 60.30 10.29Q59.44 10.85 59.44 11.61L59.44 11.61Q59.44 12.00 59.74 12.29Q60.03 12.57 60.47 12.78Q60.90 12.98 61.68 13.27L61.68 13.27Q62.73 13.68 63.38 14.01Q64.04 14.34 64.50 14.89Q64.96 15.44 64.96 16.25L64.96 16.25Q64.96 17.01 64.50 17.68Q64.04 18.35 63.08 18.77Q62.12 19.18 60.68 19.18L60.68 19.18ZM74.28 8.85Q74.38 9.03 74.38 9.38L74.38 9.38Q74.38 9.81 74.06 10.05Q73.74 10.28 73.16 10.28L73.16 10.28Q72.67 10.28 72.14 10.21Q71.60 10.14 71.46 10.12L71.46 10.12L71.16 11.97Q70.77 14.42 70.55 15.94Q70.34 17.46 70.34 17.93L70.34 17.93Q70.34 18.55 70.64 18.90L70.64 18.90Q70.20 19.19 69.73 19.19L69.73 19.19Q69.33 19.19 69.13 19.01Q68.92 18.82 68.92 18.38L68.92 18.38Q68.92 17.64 69.19 15.68Q69.45 13.72 70.06 9.97L70.06 9.97Q69.93 9.95 69.65 9.95L69.65 9.95L67.35 10.25Q67.24 10.02 67.24 9.72L67.24 9.72Q67.24 9.17 67.54 9.00Q67.84 8.82 68.47 8.82L68.47 8.82Q69.03 8.82 70.21 8.99L70.21 8.99Q71.36 9.16 71.99 9.16L71.99 9.16L74.28 8.85ZM80.75 13.68Q81.87 13.89 82.50 14.54Q83.13 15.19 83.13 16.17L83.13 16.17Q83.13 17.04 82.61 17.72Q82.08 18.41 81.16 18.80Q80.23 19.19 79.09 19.19L79.09 19.19Q77.34 19.19 76.31 18.77Q75.29 18.35 75.29 17.64L75.29 17.64Q75.29 16.79 75.54 15.03Q75.80 13.27 76.40 9.84L76.40 9.84L76.03 9.14Q76.90 8.67 77.39 8.67L77.39 8.67Q77.95 8.67 77.92 9.35L77.92 9.35Q79.37 8.65 80.67 8.65L80.67 8.65Q81.79 8.65 82.44 9.23Q83.09 9.80 83.09 10.79L83.09 10.79Q83.09 11.68 82.48 12.43Q81.87 13.19 80.75 13.68L80.75 13.68ZM77.83 10.19Q77.41 12.22 77.15 13.75L77.15 13.75Q78.51 13.66 79.51 13.29Q80.50 12.92 81.04 12.32Q81.58 11.72 81.58 10.95L81.58 10.95Q81.58 9.69 80.11 9.69L80.11 9.69Q78.96 9.69 77.83 10.19L77.83 10.19ZM78.95 18.30Q80.16 18.30 80.90 17.74Q81.63 17.18 81.63 16.27L81.63 16.27Q81.63 15.34 81.00 14.83Q80.36 14.32 79.21 14.32L79.21 14.32Q78.19 14.32 77.04 14.59L77.04 14.59Q76.80 16.21 76.69 17.91L76.69 17.91Q77.17 18.09 77.77 18.19Q78.37 18.30 78.95 18.30L78.95 18.30ZM92.29 9.52Q92.29 10.18 92.27 10.58L92.27 10.58L92.26 12.25Q92.26 14.69 92.48 16.47Q92.69 18.26 93.31 18.84L93.31 18.84Q92.92 19.15 92.40 19.15L92.40 19.15Q91.91 19.15 91.61 18.88Q91.31 18.61 91.14 17.95Q90.97 17.29 90.90 16.11L90.90 16.11L87.11 16.11Q86.79 17.02 86.79 17.67L86.79 17.67Q86.79 18.42 86.97 18.84L86.97 18.84Q86.76 19.01 86.54 19.08Q86.32 19.15 86.02 19.15L86.02 19.15Q85.69 19.15 85.52 18.87Q85.34 18.58 85.34 18.03L85.34 18.03Q85.34 16.88 86.46 14.60Q87.57 12.32 89.61 9.37L89.61 9.37L89.19 8.93Q89.52 8.74 89.79 8.65Q90.06 8.55 90.40 8.55L90.40 8.55Q90.90 8.55 91 8.82L91 8.82Q91.27 8.55 91.62 8.55L91.62 8.55Q91.95 8.55 92.12 8.79Q92.29 9.02 92.29 9.52L92.29 9.52ZM87.44 15.29L90.87 15.29Q90.85 14.77 90.85 13.54L90.85 13.54L90.85 9.81L90.68 9.81Q88.37 13.22 87.44 15.29L87.44 15.29ZM104.97 9.27Q104.97 9.42 104.62 11.59L104.62 11.59Q103.75 16.90 103.75 17.81L103.75 17.81Q103.75 18.52 104.06 18.91L104.06 18.91Q103.56 19.21 103.15 19.21L103.15 19.21L103.11 19.21Q102.23 19.19 101.69 18.63Q101.15 18.06 100.46 16.28Q99.78 14.50 98.35 10.09L98.35 10.09L98.28 10.09L98.10 11.23Q97.17 16.88 97.17 17.79L97.17 17.79Q97.17 18.51 97.48 18.90L97.48 18.90Q97.01 19.19 96.57 19.19L96.57 19.19Q96.15 19.19 95.96 18.97Q95.76 18.75 95.76 18.24L95.76 18.24Q95.76 17.37 96.00 15.61Q96.24 13.85 96.89 9.84L96.89 9.84L96.53 9.14Q97.33 8.67 97.87 8.67L97.87 8.67L97.89 8.67L97.89 8.67L97.90 8.67Q98.59 8.68 99.07 9.28Q99.55 9.88 100.23 11.67Q100.90 13.45 102.26 17.65L102.26 17.65L102.35 17.65Q102.42 16.73 102.68 14.97Q102.93 13.20 103.47 9.84L103.47 9.84L103.04 9.14Q103.88 8.67 104.47 8.67L104.47 8.67Q104.97 8.67 104.97 9.27L104.97 9.27ZM111.82 13.27Q112.56 15.11 113.44 16.67Q114.31 18.24 114.91 18.80L114.91 18.80Q114.79 18.96 114.48 19.07Q114.17 19.18 113.93 19.18L113.93 19.18Q113.55 19.18 113.30 19.00Q113.05 18.82 112.76 18.33Q112.48 17.84 111.99 16.76L111.99 16.76L110.71 14.04L109.24 15.08Q108.92 17.23 108.92 17.79L108.92 17.79Q108.92 18.51 109.23 18.90L109.23 18.90Q108.74 19.19 108.32 19.19L108.32 19.19Q107.90 19.19 107.70 18.97Q107.51 18.75 107.51 18.24L107.51 18.24Q107.51 17.39 107.74 15.60Q107.98 13.82 108.64 9.84L108.64 9.84L108.28 9.14Q109.14 8.67 109.63 8.67L109.63 8.67Q110.14 8.67 110.14 9.27L110.14 9.27Q110.14 9.49 109.75 11.84L109.75 11.84L109.38 14.11L109.84 13.76Q111.34 12.64 112.15 11.90Q112.95 11.16 113.30 10.56Q113.64 9.97 113.64 9.34L113.64 9.34Q113.64 9.16 113.53 8.90L113.53 8.90Q113.67 8.81 113.86 8.74Q114.04 8.68 114.24 8.68L114.24 8.68Q114.60 8.68 114.85 8.93Q115.09 9.18 115.09 9.56L115.09 9.56Q115.09 10.35 114.35 11.19Q113.60 12.03 111.82 13.27L111.82 13.27Z"></path></g><defs data-v-fde0c5aa=""><!----></defs><g data-v-fde0c5aa="" id="19afb777-71e2-460c-bd17-bae2b5de9e33" stroke="none" fill="#30f49c" transform="matrix(0.2699400495472008,0,0,0.2699400495472008,36.49536839027515,136.5282364394735)"><g clip-rule="evenodd"><path d="M12.983 10.59l17.018 88.223-5.872-59.049 29.021-1.892-.054-9.883L64.549 1 53.622 18.977z"></path><path d="M59.389 54.548l5.16-53.541-8.74 39.716-19.612 1.045 1.57 20.462-7.766 36.583 12.057-39.899z"></path><path d="M62.8 67.182l.549-10.453-15.979 3.755-.032 11.797-17.337 26.532 21.68-27.616zM65.711 62.394l14.841-4.731 1.509-12.532-15.899 2.095zM72.07 44.502l10.988-1.417 1.581-10.278-8.079-.373L64.549 1l8.43 30.967z"></path><path d="M87.413 31.294l1.256-9.506-9.544-2.694L64.549 1l14.483 22.437-.422 7z"></path></g></g><!----></svg>